<?xml version="1.0"?>
<svg xmlns="http://www.w3.org/2000/svg" height="512px" viewBox="-71 0 512 512.00007" width="512px"><g><path d="m370.65625 298.375c0-29.164062-20.976562-53.507812-48.632812-58.773438 8.457031-10.320312 13.542968-23.507812 13.542968-37.863281 0-32.992187-26.84375-59.835937-59.835937-59.835937-14.792969 0-28.339844 5.40625-38.796875 14.335937-3.316406-5.582031-7.519532-10.574219-12.40625-14.796875 19.253906-3.539062 41.679687-11.371094 58.605468-28.300781 35.914063-35.910156 30.933594-96.59375 30.703126-99.15625l-1.117188-12.507813-12.507812-1.121093c-2.566407-.226563-63.25-5.207031-99.160157 30.703125-18.859375 18.859375-26.4375 44.542968-29.355469 65.058594-16.570312-12.464844-40.125-25.308594-66.835937-25.308594-50.785156 0-90.171875 46.433594-91.828125 48.40625l-8.050781 9.636718 8.050781 9.636719c.917969 1.09375 13.394531 15.800781 32.960938 28.722657-7.023438 9.929687-10.933594 21.910156-10.933594 34.53125 0 14.355468 5.085937 27.542968 13.546875 37.867187-27.640625 5.273437-48.605469 29.613281-48.605469 58.765625 0 27.3125 18.40625 50.394531 43.464844 57.535156-5.945313 9.292969-9.40625 20.320313-9.40625 32.144532 0 32.992187 26.84375 59.835937 59.835937 59.835937 12.421875 0 23.96875-3.804687 33.542969-10.3125-1.171875 4.671875-1.804688 9.554687-1.804688 14.585937 0 32.992188 26.84375 59.835938 59.839844 59.835938 32.992188 0 59.835938-26.84375 59.835938-59.835938 0-4.75-.574219-9.367187-1.625-13.800781 9.332031 6.019531 20.429687 9.527344 32.335937 9.527344 32.996094 0 59.839844-26.84375 59.839844-59.835937 0-11.75-3.417969-22.710938-9.292969-31.964844 25.375-6.933594 44.089844-30.171875 44.089844-57.714844zm-185.183594 32.792969c16.421875 0 29.785156 13.359375 29.785156 29.785156 0 16.421875-13.363281 29.785156-29.785156 29.785156-16.425781 0-29.789062-13.363281-29.789062-29.785156 0-16.425781 13.363281-29.785156 29.789062-29.785156zm-45.078125-78.605469c16.425781 0 29.785157 13.359375 29.785157 29.785156 0 16.421875-13.359376 29.785156-29.785157 29.785156-16.421875 0-29.785156-13.363281-29.785156-29.785156 0-16.425781 13.359375-29.785156 29.785156-29.785156zm90.257813 59.570312c-16.421875 0-29.785156-13.359374-29.785156-29.785156 0-16.421875 13.363281-29.785156 29.785156-29.785156 16.425781 0 29.785156 13.363281 29.785156 29.785156 0 16.425782-13.359375 29.785156-29.785156 29.785156zm-45.179688-95.636718c-16.425781 0-29.789062-13.359375-29.789062-29.777344 0-6.714844 2.261718-13.191406 6.394531-18.433594 4.921875-3.15625 9.414063-6.445312 13.417969-9.640625 3.183594-1.136719 6.53125-1.714843 9.976562-1.714843 16.421875 0 29.78125 13.363281 29.78125 29.789062 0 16.417969-13.359375 29.777344-29.78125 29.777344zm90.257813-44.542969c16.421875 0 29.785156 13.363281 29.785156 29.785156 0 16.425781-13.363281 29.789063-29.785156 29.789063-16.425781 0-29.789063-13.363282-29.789063-29.789063 0-16.421875 13.363282-29.785156 29.789063-29.785156zm-53.433594-119.644531c17.394531-17.390625 45.152344-21.375 61.644531-22.097656-.765625 16.53125-4.78125 44.40625-22.058594 61.683593-17.390624 17.394531-45.148437 21.375-61.640624 22.101563.761718-16.535156 4.777343-44.410156 22.054687-61.6875zm-117.4375 48.554687c24.617187 0 47.078125 16.839844 59.246094 27.988281-12.175781 11.15625-34.632813 27.992188-59.246094 27.992188-24.617187 0-47.078125-16.84375-59.246094-27.988281 12.175781-11.160157 34.632813-27.992188 59.246094-27.992188zm0 86.03125c5.144531 0 10.167969-.484375 15.050781-1.339843 3.105469 4.765624 4.769532 10.328124 4.769532 16.1875 0 16.421874-13.359376 29.78125-29.78125 29.78125-16.421876 0-29.789063-13.359376-29.789063-29.78125 0-7.804688 3.003906-15.117188 8.257813-20.589844 9.765624 3.507812 20.355468 5.742187 31.492187 5.742187zm-74.808594 111.480469c0-16.425781 13.363281-29.789062 29.789063-29.789062 7.902344 0 15.417968 3.152343 20.953125 8.625-.144531 1.695312-.234375 3.402343-.234375 5.136718 0 9.929688 2.445312 19.292969 6.742187 27.546875-4.570312 10.835938-15.382812 18.261719-27.460937 18.261719-16.425782 0-29.789063-13.359375-29.789063-29.78125zm63.84375 119.464844c-16.421875 0-29.785156-13.363282-29.785156-29.785156 0-16.421876 13.363281-29.785157 29.785156-29.785157 16.425781 0 29.785157 13.363281 29.785157 29.785157 0 16.421874-13.359376 29.785156-29.785157 29.785156zm91.578125 64.109375c-16.425781 0-29.789062-13.363281-29.789062-29.785157 0-16.425781 13.363281-29.789062 29.789062-29.789062 16.421875 0 29.785156 13.363281 29.785156 29.789062 0 16.421876-13.363281 29.785157-29.785156 29.785157zm90.546875-64.109375c-16.425781 0-29.785156-13.363282-29.785156-29.785156 0-16.421876 13.359375-29.785157 29.785156-29.785157 16.421875 0 29.785157 13.363281 29.785157 29.785157 0 16.421874-13.359376 29.785156-29.785157 29.785156zm34.792969-89.683594c-12.097656 0-22.648438-7.109375-27.292969-17.824219 4.441407-8.359375 6.96875-17.878906 6.96875-27.984375 0-1.851562-.09375-3.683594-.261719-5.492187 5.503907-5.246094 12.875-8.269531 20.585938-8.269531 16.425781 0 29.792969 13.367187 29.792969 29.792968 0 16.417969-13.363281 29.777344-29.792969 29.777344zm0 0" data-original="#000000" class="active-path" data-old_color="#000000" fill="#FCBE50"/></g> </svg>
